<mxfile host="app.diagrams.net" agent="Mozilla/5.0 (Windows NT 10.0; Win64; x64; rv:130.0) Gecko/20100101 Firefox/130.0" version="24.7.16">
  <diagram name="Страница — 1" id="KyiQzCt9rgxd2dY673ne">
    <mxGraphModel dx="1195" dy="628" grid="1" gridSize="10" guides="1" tooltips="1" connect="1" arrows="1" fold="1" page="1" pageScale="1" pageWidth="827" pageHeight="1169" math="0" shadow="0">
      <root>
        <mxCell id="0" />
        <mxCell id="1" parent="0" />
        <mxCell id="AlWu4j2nUdlM_dIIHE1T-1" value="" style="endArrow=none;html=1;rounded=0;" edge="1" parent="1">
          <mxGeometry width="50" height="50" relative="1" as="geometry">
            <mxPoint x="400" y="1160" as="sourcePoint" />
            <mxPoint x="400" as="targetPoint" />
          </mxGeometry>
        </mxCell>
        <mxCell id="AlWu4j2nUdlM_dIIHE1T-2" value="&lt;div&gt;Сервер&lt;/div&gt;&lt;div&gt;GO/SQL&lt;br&gt;&lt;/div&gt;" style="text;html=1;align=center;verticalAlign=middle;whiteSpace=wrap;rounded=0;" vertex="1" parent="1">
          <mxGeometry x="560" width="120" height="40" as="geometry" />
        </mxCell>
        <mxCell id="AlWu4j2nUdlM_dIIHE1T-4" value="&lt;div align=&quot;center&quot;&gt;Клиент&lt;/div&gt;&lt;div align=&quot;center&quot;&gt;HTML/CSS/JS&lt;br&gt;&lt;/div&gt;" style="text;html=1;whiteSpace=wrap;overflow=hidden;rounded=0;align=center;" vertex="1" parent="1">
          <mxGeometry x="120" width="120" height="40" as="geometry" />
        </mxCell>
        <mxCell id="AlWu4j2nUdlM_dIIHE1T-5" value="HTML HANDLERS" style="swimlane;whiteSpace=wrap;html=1;" vertex="1" parent="1">
          <mxGeometry x="440" y="40" width="360" height="230" as="geometry" />
        </mxCell>
        <mxCell id="AlWu4j2nUdlM_dIIHE1T-6" value="/login" style="shape=note;whiteSpace=wrap;html=1;backgroundOutline=1;darkOpacity=0.05;size=6;" vertex="1" parent="AlWu4j2nUdlM_dIIHE1T-5">
          <mxGeometry x="10" y="80" width="40" height="40" as="geometry" />
        </mxCell>
        <mxCell id="AlWu4j2nUdlM_dIIHE1T-12" value="&lt;font style=&quot;font-size: 18px;&quot;&gt;/&lt;/font&gt;" style="shape=note;whiteSpace=wrap;html=1;backgroundOutline=1;darkOpacity=0.05;size=6;" vertex="1" parent="AlWu4j2nUdlM_dIIHE1T-5">
          <mxGeometry x="10" y="30" width="40" height="40" as="geometry" />
        </mxCell>
        <mxCell id="AlWu4j2nUdlM_dIIHE1T-13" value="&lt;font style=&quot;font-size: 9px;&quot;&gt;/register&lt;/font&gt;" style="shape=note;whiteSpace=wrap;html=1;backgroundOutline=1;darkOpacity=0.05;size=6;" vertex="1" parent="AlWu4j2nUdlM_dIIHE1T-5">
          <mxGeometry x="10" y="130" width="40" height="40" as="geometry" />
        </mxCell>
        <mxCell id="AlWu4j2nUdlM_dIIHE1T-14" value="Выдача главной страницы (Protected)" style="text;strokeColor=none;fillColor=none;align=left;verticalAlign=middle;spacingLeft=4;spacingRight=4;overflow=hidden;points=[[0,0.5],[1,0.5]];portConstraint=eastwest;rotatable=0;whiteSpace=wrap;html=1;" vertex="1" parent="AlWu4j2nUdlM_dIIHE1T-5">
          <mxGeometry x="50" y="30" width="200" height="40" as="geometry" />
        </mxCell>
        <mxCell id="AlWu4j2nUdlM_dIIHE1T-15" value="Выдача страницы авторизации" style="text;strokeColor=none;fillColor=none;align=left;verticalAlign=middle;spacingLeft=4;spacingRight=4;overflow=hidden;points=[[0,0.5],[1,0.5]];portConstraint=eastwest;rotatable=0;whiteSpace=wrap;html=1;" vertex="1" parent="AlWu4j2nUdlM_dIIHE1T-5">
          <mxGeometry x="50" y="80" width="200" height="40" as="geometry" />
        </mxCell>
        <mxCell id="AlWu4j2nUdlM_dIIHE1T-16" value="Выдача страницы регистрации" style="text;strokeColor=none;fillColor=none;align=left;verticalAlign=middle;spacingLeft=4;spacingRight=4;overflow=hidden;points=[[0,0.5],[1,0.5]];portConstraint=eastwest;rotatable=0;whiteSpace=wrap;html=1;" vertex="1" parent="AlWu4j2nUdlM_dIIHE1T-5">
          <mxGeometry x="50" y="130" width="200" height="40" as="geometry" />
        </mxCell>
        <mxCell id="AlWu4j2nUdlM_dIIHE1T-17" value="&lt;font style=&quot;font-size: 9px;&quot;&gt;/public/*type&lt;br&gt;&lt;/font&gt;" style="shape=note;whiteSpace=wrap;html=1;backgroundOutline=1;darkOpacity=0.05;size=6;" vertex="1" parent="AlWu4j2nUdlM_dIIHE1T-5">
          <mxGeometry x="10" y="180" width="40" height="40" as="geometry" />
        </mxCell>
        <mxCell id="AlWu4j2nUdlM_dIIHE1T-19" value="Выдача статических файлов" style="text;strokeColor=none;fillColor=none;align=left;verticalAlign=middle;spacingLeft=4;spacingRight=4;overflow=hidden;points=[[0,0.5],[1,0.5]];portConstraint=eastwest;rotatable=0;whiteSpace=wrap;html=1;" vertex="1" parent="AlWu4j2nUdlM_dIIHE1T-5">
          <mxGeometry x="50" y="180" width="200" height="40" as="geometry" />
        </mxCell>
        <mxCell id="AlWu4j2nUdlM_dIIHE1T-34" value="Главная страница" style="swimlane;fontStyle=0;childLayout=stackLayout;horizontal=1;startSize=30;horizontalStack=0;resizeParent=1;resizeParentMax=0;resizeLast=0;collapsible=1;marginBottom=0;whiteSpace=wrap;html=1;" vertex="1" parent="1">
          <mxGeometry x="40" y="110" width="320" height="160" as="geometry" />
        </mxCell>
        <mxCell id="AlWu4j2nUdlM_dIIHE1T-36" value="Интерфейс отображения продуктов;" style="text;strokeColor=none;fillColor=none;align=left;verticalAlign=middle;spacingLeft=4;spacingRight=4;overflow=hidden;points=[[0,0.5],[1,0.5]];portConstraint=eastwest;rotatable=0;whiteSpace=wrap;html=1;" vertex="1" parent="AlWu4j2nUdlM_dIIHE1T-34">
          <mxGeometry y="30" width="320" height="30" as="geometry" />
        </mxCell>
        <mxCell id="AlWu4j2nUdlM_dIIHE1T-37" value="Интерфейс удаления, изменения, добавления и получения продукта по его ID" style="text;strokeColor=none;fillColor=none;align=left;verticalAlign=middle;spacingLeft=4;spacingRight=4;overflow=hidden;points=[[0,0.5],[1,0.5]];portConstraint=eastwest;rotatable=0;whiteSpace=wrap;html=1;" vertex="1" parent="AlWu4j2nUdlM_dIIHE1T-34">
          <mxGeometry y="60" width="320" height="40" as="geometry" />
        </mxCell>
        <mxCell id="AlWu4j2nUdlM_dIIHE1T-40" value="Отображение имени пользователя;" style="text;strokeColor=none;fillColor=none;align=left;verticalAlign=middle;spacingLeft=4;spacingRight=4;overflow=hidden;points=[[0,0.5],[1,0.5]];portConstraint=eastwest;rotatable=0;whiteSpace=wrap;html=1;" vertex="1" parent="AlWu4j2nUdlM_dIIHE1T-34">
          <mxGeometry y="100" width="320" height="30" as="geometry" />
        </mxCell>
        <mxCell id="AlWu4j2nUdlM_dIIHE1T-41" value="Кнопка выхода (удаление токена);" style="text;strokeColor=none;fillColor=none;align=left;verticalAlign=middle;spacingLeft=4;spacingRight=4;overflow=hidden;points=[[0,0.5],[1,0.5]];portConstraint=eastwest;rotatable=0;whiteSpace=wrap;html=1;" vertex="1" parent="AlWu4j2nUdlM_dIIHE1T-34">
          <mxGeometry y="130" width="320" height="30" as="geometry" />
        </mxCell>
        <mxCell id="AlWu4j2nUdlM_dIIHE1T-43" style="edgeStyle=orthogonalEdgeStyle;rounded=0;orthogonalLoop=1;jettySize=auto;html=1;entryX=0.5;entryY=0;entryDx=0;entryDy=0;" edge="1" parent="1" source="AlWu4j2nUdlM_dIIHE1T-12" target="AlWu4j2nUdlM_dIIHE1T-34">
          <mxGeometry relative="1" as="geometry" />
        </mxCell>
        <mxCell id="AlWu4j2nUdlM_dIIHE1T-44" value="API (Protected)" style="swimlane;whiteSpace=wrap;html=1;" vertex="1" parent="1">
          <mxGeometry x="440" y="290" width="360" height="130" as="geometry" />
        </mxCell>
        <mxCell id="AlWu4j2nUdlM_dIIHE1T-45" value="/api/products/*id" style="shape=note;whiteSpace=wrap;html=1;backgroundOutline=1;darkOpacity=0.05;size=6;" vertex="1" parent="AlWu4j2nUdlM_dIIHE1T-44">
          <mxGeometry x="10" y="80" width="140" height="40" as="geometry" />
        </mxCell>
        <mxCell id="AlWu4j2nUdlM_dIIHE1T-46" value="/api/products GET" style="shape=note;whiteSpace=wrap;html=1;backgroundOutline=1;darkOpacity=0.05;size=6;" vertex="1" parent="AlWu4j2nUdlM_dIIHE1T-44">
          <mxGeometry x="10" y="30" width="140" height="40" as="geometry" />
        </mxCell>
        <mxCell id="AlWu4j2nUdlM_dIIHE1T-48" value="Выдача массива продуктов " style="text;strokeColor=none;fillColor=none;align=left;verticalAlign=middle;spacingLeft=4;spacingRight=4;overflow=hidden;points=[[0,0.5],[1,0.5]];portConstraint=eastwest;rotatable=0;whiteSpace=wrap;html=1;" vertex="1" parent="AlWu4j2nUdlM_dIIHE1T-44">
          <mxGeometry x="150" y="30" width="200" height="40" as="geometry" />
        </mxCell>
        <mxCell id="AlWu4j2nUdlM_dIIHE1T-52" value="POST, GET, PUT, DELETE продуктов по их ID" style="text;strokeColor=none;fillColor=none;align=left;verticalAlign=middle;spacingLeft=4;spacingRight=4;overflow=hidden;points=[[0,0.5],[1,0.5]];portConstraint=eastwest;rotatable=0;whiteSpace=wrap;html=1;" vertex="1" parent="AlWu4j2nUdlM_dIIHE1T-44">
          <mxGeometry x="150" y="80" width="200" height="40" as="geometry" />
        </mxCell>
        <mxCell id="AlWu4j2nUdlM_dIIHE1T-54" value="AUTH" style="swimlane;whiteSpace=wrap;html=1;" vertex="1" parent="1">
          <mxGeometry x="440" y="440" width="360" height="200" as="geometry" />
        </mxCell>
        <mxCell id="AlWu4j2nUdlM_dIIHE1T-55" value="/auth/register POST" style="shape=note;whiteSpace=wrap;html=1;backgroundOutline=1;darkOpacity=0.05;size=6;" vertex="1" parent="AlWu4j2nUdlM_dIIHE1T-54">
          <mxGeometry x="10" y="80" width="140" height="50" as="geometry" />
        </mxCell>
        <mxCell id="AlWu4j2nUdlM_dIIHE1T-56" value="/auth/login POST" style="shape=note;whiteSpace=wrap;html=1;backgroundOutline=1;darkOpacity=0.05;size=6;" vertex="1" parent="AlWu4j2nUdlM_dIIHE1T-54">
          <mxGeometry x="10" y="30" width="140" height="40" as="geometry" />
        </mxCell>
        <mxCell id="AlWu4j2nUdlM_dIIHE1T-57" value="Авторизация пользователя&lt;br&gt;(выдача токена)" style="text;strokeColor=none;fillColor=none;align=left;verticalAlign=middle;spacingLeft=4;spacingRight=4;overflow=hidden;points=[[0,0.5],[1,0.5]];portConstraint=eastwest;rotatable=0;whiteSpace=wrap;html=1;" vertex="1" parent="AlWu4j2nUdlM_dIIHE1T-54">
          <mxGeometry x="150" y="30" width="200" height="40" as="geometry" />
        </mxCell>
        <mxCell id="AlWu4j2nUdlM_dIIHE1T-58" value="Регистрация пользователя&lt;br&gt;Занесение в базу&amp;nbsp; данных, отправка токена" style="text;strokeColor=none;fillColor=none;align=left;verticalAlign=middle;spacingLeft=4;spacingRight=4;overflow=hidden;points=[[0,0.5],[1,0.5]];portConstraint=eastwest;rotatable=0;whiteSpace=wrap;html=1;" vertex="1" parent="AlWu4j2nUdlM_dIIHE1T-54">
          <mxGeometry x="150" y="80" width="200" height="50" as="geometry" />
        </mxCell>
        <mxCell id="AlWu4j2nUdlM_dIIHE1T-63" value="/auth/me POST" style="shape=note;whiteSpace=wrap;html=1;backgroundOutline=1;darkOpacity=0.05;size=6;" vertex="1" parent="AlWu4j2nUdlM_dIIHE1T-54">
          <mxGeometry x="10" y="140" width="140" height="50" as="geometry" />
        </mxCell>
        <mxCell id="AlWu4j2nUdlM_dIIHE1T-64" value="Отдача данных пользователя по его токену (Protected)" style="text;strokeColor=none;fillColor=none;align=left;verticalAlign=middle;spacingLeft=4;spacingRight=4;overflow=hidden;points=[[0,0.5],[1,0.5]];portConstraint=eastwest;rotatable=0;whiteSpace=wrap;html=1;" vertex="1" parent="AlWu4j2nUdlM_dIIHE1T-54">
          <mxGeometry x="150" y="140" width="200" height="50" as="geometry" />
        </mxCell>
        <mxCell id="AlWu4j2nUdlM_dIIHE1T-65" value="" style="endArrow=none;html=1;rounded=0;" edge="1" parent="1">
          <mxGeometry width="50" height="50" relative="1" as="geometry">
            <mxPoint x="840" y="1169" as="sourcePoint" />
            <mxPoint x="840" as="targetPoint" />
          </mxGeometry>
        </mxCell>
        <mxCell id="AlWu4j2nUdlM_dIIHE1T-66" value="SQLITE " style="text;html=1;align=center;verticalAlign=middle;whiteSpace=wrap;rounded=0;" vertex="1" parent="1">
          <mxGeometry x="1040" width="120" height="40" as="geometry" />
        </mxCell>
      </root>
    </mxGraphModel>
  </diagram>
</mxfile>
